<svg xmlns="http://www.w3.org/2000/svg" width="346.667" height="346.667" preserveAspectRatio="xMidYMid meet" version="1.0" viewBox="0 0 260 260"><metadata>Created by potrace 1.11, written by Peter Selinger 2001-2013</metadata><g fill="#000" stroke="none"><path d="M76 2576 c-81 -49 -75 56 -76 -1273 0 -1324 -6 -1225 73 -1277 l41 -26 1186 0 c1181 0 1185 0 1219 21 19 11 39 26 45 32 36 38 36 43 36 1245 0 1127 -1 1179 -19 1218 -14 31 -30 47 -63 63 l-44 21 -1180 0 -1179 0 -39 -24z" transform="translate(0.000000,260.000000) scale(0.100000,-0.100000)"/></g></svg>